 <svg version="1.0" xmlns="http://www.w3.org/2000/svg" width="700.000000pt" height="700.000000pt" viewBox="0 0 700.000000 700.000000" preserveAspectRatio="xMidYMid meet">
<metadata>
Created by potrace 1.12, written by Peter Selinger 2001-2015
</metadata>
<g transform="translate(0.000000,700.000000) scale(0.100000,-0.100000)" fill="#7f6843" stroke="none">
<path d="M2131 6984 c-432 -55 -875 -243 -1216 -514 -275 -220 -506 -508 -665
-832 -243 -493 -310 -1034 -199 -1587 72 -360 271 -768 517 -1061 399 -476
991 -793 1604 -859 125 -14 411 -14 536 0 430 46 842 211 1215 485 l38 28 292
-292 c258 -258 290 -294 280 -309 -59 -84 -74 -160 -48 -249 l16 -59 867 -867
867 -868 65 0 65 0 318 318 c295 295 317 320 317 352 0 33 -49 84 -877 912
-483 482 -894 884 -913 894 -25 13 -57 19 -110 19 -74 0 -107 -12 -173 -58
-15 -10 -51 22 -308 279 l-291 291 50 64 c264 338 444 785 491 1221 14 125 14
411 0 536 -67 617 -380 1202 -859 1604 -287 241 -693 441 -1051 517 -238 51
-592 66 -828 35z m474 -504 c777 -73 1421 -582 1664 -1315 158 -475 124 -988
-94 -1443 -224 -467 -634 -826 -1130 -991 -542 -180 -1135 -109 -1623 193
-524 325 -850 868 -904 1503 -32 384 73 807 287 1152 378 611 1091 967 1800
901z"></path>
</g>
</svg>